<svg xmlns="http://www.w3.org/2000/svg" xmlns:xlink="http://www.w3.org/1999/xlink" id="Layer_1" x="0" y="0" version="1.1" viewBox="0 0 20 20" xml:space="preserve" style="enable-background:new 0 0 20 20"><style type="text/css">.st0{fill:#00000a}</style><circle cx="14" cy="13.5" r="1.5" class="st0"/><path d="M16.1,9h-1.6c-0.6-2.7-3.2-4.5-5.9-3.9C6.6,5.5,5,7,4.6,9H3.9C2.9,9,2,9.9,2,10.9v1.3c0,0.7,0.6,1.3,1.3,1.3	h0.3c0-1.3,1.1-2.4,2.4-2.4c1.3,0,2.4,1.1,2.4,2.4h3.2c0-1.3,1.1-2.4,2.4-2.4c1.3,0,2.4,1.1,2.4,2.4v0h0.3c0.7,0,1.3-0.6,1.3-1.3V11	C18,9.9,17.1,9,16.1,9z M6.2,9c0.5-1.9,2.5-2.9,4.3-2.4c1.1,0.3,2,1.2,2.4,2.4H6.2z M6,12c-0.8,0-1.5,0.7-1.5,1.5	C4.5,14.3,5.2,15,6,15c0.8,0,1.5-0.7,1.5-1.5C7.5,12.7,6.8,12,6,12z" class="st0"/></svg>