<svg xmlns="http://www.w3.org/2000/svg" xmlns:xlink="http://www.w3.org/1999/xlink" id="Layer_1" x="0" y="0" version="1.1" viewBox="0 0 20 20" xml:space="preserve" style="enable-background:new 0 0 20 20"><style type="text/css">.st0{fill-rule:evenodd;clip-rule:evenodd}</style><path d="M5.8,14H5v1h0.8c0.3,0,0.5-0.2,0.5-0.5S6.1,14,5.8,14z M11,2H3v16h13V7L11,2z M7.2,14.6c0,0.8-0.6,1.4-1.4,1.4	H5v1H4v-4h1.8c0.8,0,1.4,0.6,1.4,1.4V14.6z M11.3,15.1c0,1-0.8,1.9-1.9,1.9H8v-4h1.4c1,0,1.9,0.8,1.9,1.9V15.1z M15,14h-2v1h1.5v1	H13v1h-1v-4h3V14z M15,12H4V3h7v4h4V12z M9.4,14H9v2h0.4c0.6,0,1-0.4,1-1S9.9,14,9.4,14z" class="st0"/></svg>