<svg xmlns="http://www.w3.org/2000/svg" xmlns:xlink="http://www.w3.org/1999/xlink" id="Layer_1" x="0" y="0" version="1.1" viewBox="0 0 20 20" xml:space="preserve" style="enable-background:new 0 0 20 20"><path d="M10.2,2C5.8,2,3.5,4.8,3.5,7.9c0,1.5,0.8,3,2.1,3.8c0.4,0.2,0.3,0,0.6-1.2c0-0.1,0-0.2-0.1-0.3C4.3,8,5.8,3.7,10,3.7	c6.1,0,4.9,8.4,1.1,8.4c-0.8,0.1-1.5-0.5-1.5-1.3c0-0.1,0-0.3,0-0.4c0.4-1.1,0.7-2.1,0.8-3.2c0-2.1-3.1-1.8-3.1,1	c0,0.5,0.1,1,0.3,1.4c0,0-1,4.1-1.2,4.8c-0.2,1.2-0.1,2.4,0.1,3.5C6.4,18,6.5,18,6.5,18c0,0,0.1,0,0.1,0c0.7-1,1.3-2,1.7-3.1	c0.1-0.5,0.6-2.3,0.6-2.3c0.5,0.7,1.4,1.1,2.3,1.1c3.1,0,5.3-2.7,5.3-6C16.5,4.4,13.7,2,10.2,2z"/></svg>