<svg xmlns="http://www.w3.org/2000/svg" xmlns:xlink="http://www.w3.org/1999/xlink" id="Layer_1" x="0" y="0" version="1.1" viewBox="0 0 20 20" xml:space="preserve" style="enable-background:new 0 0 20 20"><path d="M17.7,5.3c-0.2-0.7-0.7-1.2-1.4-1.4c-2.1-0.2-4.2-0.4-6.3-0.3c-2.1,0-4.2,0.1-6.3,0.3C3.1,4.1,2.5,4.7,2.3,5.3	C2.1,6.9,2,8.4,2,10c0,1.6,0.1,3.1,0.3,4.7c0.2,0.7,0.7,1.2,1.4,1.4c2.1,0.2,4.2,0.4,6.3,0.3c2.1,0,4.2-0.1,6.3-0.3	c0.7-0.2,1.2-0.7,1.4-1.4c0.2-1.5,0.3-3.1,0.3-4.7C18,8.4,17.9,6.9,17.7,5.3z M8,13V7l5.2,3L8,13z"/></svg>